HIERARCHY
ROOT Pelvis
{
	OFFSET 0.000000 0.000000 0.000000
	CHANNELS 6 Xposition Yposition Zposition Xrotation Yrotation Zrotation
	JOINT LeftUpLeg_virtual
	{
		OFFSET 0.000000 0.000000 0.000000
		CHANNELS 3 Xrotation Yrotation Zrotation
		JOINT LeftUpLeg
		{
			OFFSET 18.735201 -5.666702 -4.541200
			CHANNELS 3 Xrotation Yrotation Zrotation
			JOINT LeftLeg
			{
				OFFSET -0.021200 -31.938179 0.493100
				CHANNELS 3 Xrotation Yrotation Zrotation
				JOINT LeftFoot
				{
					OFFSET 0.021200 -31.938179 -4.336299
					CHANNELS 3 Xrotation Yrotation Zrotation
					JOINT LeftToeBase
					{
						OFFSET 0.943001 -26.722000 15.023500
						CHANNELS 3 Xrotation Yrotation Zrotation
						End Site
						{
							OFFSET 0 0 0
						}
					}
				}
			}
		}
	}
	JOINT RightUpLeg_virtual
	{
		OFFSET 0.000000 0.000000 0.000000
		CHANNELS 3 Xrotation Yrotation Zrotation
		JOINT RightUpLeg
		{
			OFFSET -18.735201 -5.666702 -4.541200
			CHANNELS 3 Xrotation Yrotation Zrotation
			JOINT RightLeg
			{
				OFFSET 0.018946 -31.938133 0.493100
				CHANNELS 3 Xrotation Yrotation Zrotation
				JOINT RightFoot
				{
					OFFSET -0.018946 -31.938126 -4.336299
					CHANNELS 3 Xrotation Yrotation Zrotation
					JOINT RightToeBase
					{
						OFFSET -0.943001 -26.722004 15.023500
						CHANNELS 3 Xrotation Yrotation Zrotation
						End Site
						{
							OFFSET 0 0 0
						}
					}
				}
			}
		}
	}
	JOINT Hips_virtual
	{
		OFFSET 0.000000 0.000000 0.000000
		CHANNELS 3 Xrotation Yrotation Zrotation
		JOINT Hips
		{
			OFFSET -0.000000 -0.000000 -0.000000
			CHANNELS 3 Xrotation Yrotation Zrotation
			JOINT Spine
			{
				OFFSET 0.000000 10.199997 -0.299500
				CHANNELS 3 Xrotation Yrotation Zrotation
				JOINT Spine1
				{
					OFFSET 0.000000 11.900002 -1.516600
					CHANNELS 3 Xrotation Yrotation Zrotation
					JOINT Spine2
					{
						OFFSET 0.000000 13.600006 -2.842500
						CHANNELS 3 Xrotation Yrotation Zrotation
						JOINT Neck_virtual
						{
							OFFSET 0.000000 0.000000 0.000000
							CHANNELS 3 Xrotation Yrotation Zrotation
							JOINT Neck
							{
								OFFSET 0.000000 9.624100 -2.890100
								CHANNELS 3 Xrotation Yrotation Zrotation
								JOINT Head
								{
									OFFSET 0.000000 14.068802 -1.351900
									CHANNELS 3 Xrotation Yrotation Zrotation
									End Site
									{
										OFFSET 0 0 0
									}
								}
							}
						}
						JOINT LeftShoulder_virtual
						{
							OFFSET 0.000000 0.000000 0.000000
							CHANNELS 3 Xrotation Yrotation Zrotation
							JOINT LeftShoulder
							{
								OFFSET 15.263000 10.923401 -0.547700
								CHANNELS 3 Xrotation Yrotation Zrotation
								JOINT LeftArm
								{
									OFFSET 25.438599 -2.830597 -13.032500
									CHANNELS 3 Xrotation Yrotation Zrotation
									JOINT LeftForeArm
									{
										OFFSET 29.960503 0.000000 0.000000
										CHANNELS 3 Xrotation Yrotation Zrotation
										JOINT LeftHand
										{
											OFFSET 27.849251 0.000000 0.000000
											CHANNELS 3 Xrotation Yrotation Zrotation
											End Site
											{
												OFFSET 0 0 0
											}
										}
									}
								}
							}
						}
						JOINT RightShoulder_virtual
						{
							OFFSET 0.000000 0.000000 0.000000
							CHANNELS 3 Xrotation Yrotation Zrotation
							JOINT RightShoulder
							{
								OFFSET -15.263000 10.923401 -0.547700
								CHANNELS 3 Xrotation Yrotation Zrotation
								JOINT RightArm
								{
									OFFSET -25.438599 -2.830597 -13.032500
									CHANNELS 3 Xrotation Yrotation Zrotation
									JOINT RightForeArm
									{
										OFFSET -29.960503 0.000000 0.000000
										CHANNELS 3 Xrotation Yrotation Zrotation
										JOINT RightHand
										{
											OFFSET -27.849251 0.000000 0.000000
											CHANNELS 3 Xrotation Yrotation Zrotation
											End Site
											{
												OFFSET 0 0 0
											}
										}
									}
								}
							}
						}
					}
				}
			}
		}
	}
}
MOTION
Frames: 13
Frame Time: 0.03333333
-2.430393 86.982071 0.072644 0.000000 0.000000 0.000000 -2.608878 -38.404265 -2.255818 -44.951432 0.226942 13.632284 45.421964 -7.603728 0.525068 -5.211649 -8.392948 -9.591969 0.000000 0.000000 0.000000 13.757815 -39.074833 5.142114 -16.320863 -17.627103 -16.426904 33.404481 -0.565379 0.798312 -18.521716 -5.319901 12.290490 0.000000 0.000000 0.000000 1.193996 -5.408086 -1.941924 -10.843302 -42.086823 -6.308185 14.179101 10.277994 -2.519062 7.196502 6.522518 -1.716395 0.000000 0.000000 0.000000 8.562279 5.784762 -2.164290 1.232034 1.851036 0.001679 0.000000 0.000000 0.000000 9.551224 7.448265 -2.416475 3.760422 3.754266 -7.383884 1.097974 -9.813239 -58.306142 3.927086 -45.384309 -3.481934 0.000000 0.000000 0.000000 9.967179 6.524738 -0.999389 2.699725 16.015137 8.039002 -5.743467 -1.031027 46.514606 -1.875690 33.197554 7.201239 0.000000 0.000000 0.000000 
-2.422940 86.882523 -0.080736 0.000000 0.000000 0.000000 -2.726617 -37.992302 -2.211734 -45.177019 0.291156 13.766909 45.633447 -7.557988 0.592993 -4.981527 -8.403919 -9.468870 0.000000 0.000000 0.000000 13.639222 -38.924428 5.163500 -16.437557 -17.571070 -16.327782 33.461032 -0.456408 0.685473 -18.526514 -5.161960 12.184926 0.000000 0.000000 0.000000 1.350921 -5.171082 -1.937709 -10.535920 -41.863015 -6.277349 14.170921 10.204634 -2.447255 7.235168 6.486117 -1.705442 0.000000 0.000000 0.000000 8.630718 5.773114 -2.152879 1.220500 1.815682 0.021478 0.000000 0.000000 0.000000 9.669613 7.460558 -2.405605 3.738831 3.552272 -7.265853 1.340475 -9.739466 -58.520549 4.001895 -45.526824 -3.418833 0.000000 0.000000 0.000000 10.132860 6.553919 -1.068172 2.747763 15.718494 8.079192 -5.246732 -0.844542 46.361063 -1.588561 33.248610 6.976870 0.000000 0.000000 0.000000 
-2.413798 86.683731 -0.361066 0.000000 0.000000 0.000000 -2.966408 -37.214617 -2.141845 -45.622071 0.412935 14.012763 46.048401 -7.464153 0.726844 -4.539424 -8.418265 -9.221783 0.000000 0.000000 0.000000 13.413192 -38.641683 5.203478 -16.667863 -17.464734 -16.144578 33.612013 -0.250223 0.453633 -18.506589 -4.850616 11.960587 0.000000 0.000000 0.000000 1.676691 -4.753265 -1.914414 -10.008786 -41.406253 -6.251693 14.179032 10.060625 -2.309998 7.320991 6.408590 -1.682987 0.000000 0.000000 0.000000 8.754901 5.748967 -2.128870 1.195897 1.745802 0.057978 0.000000 0.000000 0.000000 9.885597 7.475105 -2.380884 3.697833 3.176009 -7.035803 1.839805 -9.590649 -58.909664 4.132083 -45.807528 -3.314148 0.000000 0.000000 0.000000 10.439339 6.600241 -1.191562 2.824471 15.149450 8.153553 -4.309943 -0.462796 46.034256 -1.029664 33.375426 6.533961 0.000000 0.000000 0.000000 
-2.411829 86.387482 -0.725535 0.000000 0.000000 0.000000 -3.332815 -36.148168 -2.076700 -46.273750 0.582343 14.329805 46.652145 -7.320589 0.923834 -3.917872 -8.425709 -8.850176 0.000000 0.000000 0.000000 13.100147 -38.256374 5.255939 -17.004065 -17.317624 -15.904536 33.917340 0.033227 0.092913 -18.414613 -4.394019 11.596212 0.000000 0.000000 0.000000 2.188062 -4.234162 -1.850095 -9.392862 -40.713146 -6.279823 14.239836 9.853178 -2.120046 7.463069 6.284590 -1.648390 0.000000 0.000000 0.000000 8.912219 5.711630 -2.090735 1.155324 1.643916 0.105986 0.000000 0.000000 0.000000 10.163778 7.476413 -2.336779 3.640880 2.672502 -6.704655 2.606020 -9.364811 -59.410754 4.285785 -46.214744 -3.202052 0.000000 0.000000 0.000000 10.843685 6.644685 -1.346028 2.900392 14.352051 8.251918 -3.028022 0.120632 45.504739 -0.231093 33.615575 5.884704 0.000000 0.000000 0.000000 
-2.424578 85.997932 -1.129730 0.000000 0.000000 0.000000 -3.824355 -34.878163 -2.049074 -47.111141 0.790395 14.672597 47.425668 -7.130408 1.181815 -3.157458 -8.420099 -8.355912 0.000000 0.000000 0.000000 12.725847 -37.799865 5.311091 -17.432921 -17.139880 -15.642057 34.434668 0.370615 -0.406109 -18.203212 -3.803347 11.070294 0.000000 0.000000 0.000000 2.895357 -3.673154 -1.727492 -8.800268 -39.801097 -6.392326 14.383665 9.595442 -1.895607 7.661083 6.113517 -1.601534 0.000000 0.000000 0.000000 9.074784 5.661496 -2.037597 1.095116 1.515331 0.159688 0.000000 0.000000 0.000000 10.464106 7.450029 -2.266383 3.571692 2.095674 -6.287111 3.621088 -9.062284 -59.959922 4.429446 -46.724361 -3.116266 0.000000 0.000000 0.000000 11.295958 6.668276 -1.505876 2.949238 13.382997 8.362773 -1.507269 0.894215 44.748978 0.758496 34.003530 5.048405 0.000000 0.000000 0.000000 
-2.453821 85.520966 -1.540027 0.000000 0.000000 0.000000 -4.427680 -33.480891 -2.083616 -48.103489 1.031100 15.001867 48.348317 -6.903943 1.499874 -2.299792 -8.404326 -7.745330 0.000000 0.000000 0.000000 12.315980 -37.295965 5.356293 -17.937668 -16.939062 -15.392321 35.197140 0.738570 -1.047856 -17.840924 -3.093726 10.368129 0.000000 0.000000 0.000000 3.791037 -3.082884 -1.544470 -8.277587 -38.710285 -6.583394 14.620918 9.305454 -1.657605 7.900318 5.902544 -1.543175 0.000000 0.000000 0.000000 9.214574 5.599997 -1.969555 1.012018 1.368627 0.213992 0.000000 0.000000 0.000000 10.751892 7.387589 -2.163464 3.493997 1.495673 -5.801329 4.825296 -8.691736 -60.506494 4.537878 -47.296321 -3.078848 0.000000 0.000000 0.000000 11.750427 6.657435 -1.649533 2.958282 12.304003 8.475484 0.156507 1.817651 43.763505 1.878443 34.559060 4.051598 0.000000 0.000000 0.000000 
-2.493202 84.961830 -1.938946 0.000000 0.000000 0.000000 -5.114828 -32.019210 -2.189822 -49.209590 1.300180 15.292611 49.400699 -6.658299 1.877747 -1.381024 -8.391076 -7.030565 0.000000 0.000000 0.000000 11.891008 -36.756339 5.379004 -18.502445 -16.718551 -15.184509 36.202748 1.114582 -1.827911 -17.320212 -2.286371 9.486535 0.000000 0.000000 0.000000 4.842484 -2.433900 -1.318586 -7.794116 -37.492428 -6.813159 14.938566 9.002546 -1.425656 8.155032 5.665427 -1.474979 0.000000 0.000000 0.000000 9.307806 5.528553 -1.887263 0.904697 1.214912 0.265336 0.000000 0.000000 0.000000 11.004635 7.288580 -2.024855 3.412079 0.913155 -5.269224 6.121820 -8.276220 -61.015323 4.600259 -47.876792 -3.095087 0.000000 0.000000 0.000000 12.173316 6.605699 -1.762957 2.931527 11.174676 8.580540 1.887701 2.823002 42.571654 3.065508 35.283306 2.926855 0.000000 0.000000 0.000000 
-2.529349 84.322876 -2.323488 0.000000 0.000000 0.000000 -5.845178 -30.549431 -2.361028 -50.379858 1.591815 15.536336 50.567790 -6.414255 2.314626 -0.426772 -8.399645 -6.229297 0.000000 0.000000 0.000000 11.463592 -36.182415 5.371674 -19.116620 -16.478465 -15.035756 37.418843 1.476379 -2.731086 -16.655256 -1.410293 8.435656 0.000000 0.000000 0.000000 5.993100 -1.683795 -1.083294 -7.262141 -36.197236 -7.023545 15.307251 8.703192 -1.214563 8.397971 5.418125 -1.399396 0.000000 0.000000 0.000000 9.338012 5.447601 -1.791377 0.774977 1.065914 0.311953 0.000000 0.000000 0.000000 11.214212 7.159200 -1.852235 3.331408 0.378106 -4.715803 7.395223 -7.854367 -61.462530 4.620529 -48.409048 -3.155262 0.000000 0.000000 0.000000 12.545540 6.512460 -1.840105 2.885810 10.046384 8.668138 3.629520 3.828910 41.220451 4.264775 36.160019 1.710274 0.000000 0.000000 0.000000 
-2.545907 83.603088 -2.699410 0.000000 0.000000 0.000000 -6.572246 -29.130313 -2.579515 -51.562508 1.896217 15.737849 51.841525 -6.191847 2.807917 0.550808 -8.450391 -5.363128 0.000000 0.000000 0.000000 11.039288 -35.572851 5.336554 -19.776854 -16.218675 -14.947816 38.798108 1.801211 -3.732216 -15.872714 -0.501982 7.237841 0.000000 0.000000 0.000000 7.173113 -0.810083 -0.877204 -6.574687 -34.867781 -7.155966 15.693874 8.418324 -1.032781 8.610010 5.174021 -1.319626 0.000000 0.000000 0.000000 9.297677 5.356520 -1.682628 0.628134 0.931522 0.353745 0.000000 0.000000 0.000000 11.385053 7.009799 -1.652523 3.258541 -0.088908 -4.166295 8.533807 -7.473271 -61.832603 4.612126 -48.849691 -3.241492 0.000000 0.000000 0.000000 12.861469 6.380608 -1.881726 2.843133 8.957358 8.726887 5.337697 4.763010 39.769572 5.437302 37.160846 0.438396 0.000000 0.000000 0.000000 
-2.528645 82.799957 -3.075872 0.000000 0.000000 0.000000 -7.253737 -27.824826 -2.825136 -52.712839 2.200051 15.908957 53.221408 -6.006155 3.352359 1.552846 -8.559026 -4.455188 0.000000 0.000000 0.000000 10.619533 -34.933003 5.288015 -20.486181 -15.942510 -14.907779 40.297194 2.065778 -4.799720 -15.000579 0.397334 5.923590 0.000000 0.000000 0.000000 8.317015 0.172951 -0.731360 -5.643054 -33.546174 -7.163852 16.073054 8.152910 -0.883231 8.785113 4.941136 -1.239581 0.000000 0.000000 0.000000 9.188137 5.254490 -1.562565 0.471890 0.817772 0.391851 0.000000 0.000000 0.000000 11.529936 6.852394 -1.436612 3.200312 -0.474841 -3.641447 9.447045 -7.175528 -62.119607 4.589453 -49.182491 -3.336090 0.000000 0.000000 0.000000 13.125515 6.214591 -1.893461 2.823398 7.929967 8.744070 6.974659 5.582577 38.278258 6.561718 38.253704 -0.854464 0.000000 0.000000 0.000000 
-2.469086 81.912956 -3.462915 0.000000 0.000000 0.000000 -7.861334 -26.691800 -3.083148 -53.802766 2.489514 16.062373 54.712097 -5.864683 3.939541 2.590020 -8.732604 -3.528067 0.000000 0.000000 0.000000 10.204358 -34.281935 5.250192 -21.251857 -15.658887 -14.893330 41.888416 2.246497 -5.900908 -14.061000 1.245691 4.525147 0.000000 0.000000 0.000000 9.379222 1.219616 -0.661021 -4.419660 -32.281458 -7.018938 16.432566 7.906713 -0.765348 8.929175 4.722197 -1.163705 0.000000 0.000000 0.000000 9.017828 5.141401 -1.434483 0.314526 0.725982 0.427970 0.000000 0.000000 0.000000 11.665073 6.698806 -1.216986 3.162648 -0.772243 -3.153113 10.074100 -6.986386 -62.329369 4.559944 -49.422450 -3.427669 0.000000 0.000000 0.000000 13.348483 6.019388 -1.883839 2.839964 6.970985 8.707672 8.504615 6.284135 36.795961 7.630077 39.412876 -2.137896 0.000000 0.000000 0.000000 
-2.365505 80.946739 -3.872079 0.000000 0.000000 0.000000 -8.386649 -25.772187 -3.348216 -54.826635 2.754177 16.207965 56.317833 -5.766978 4.557831 3.675812 -8.968142 -2.602734 0.000000 0.000000 0.000000 9.793572 -33.652380 5.250422 -22.082823 -15.381410 -14.880692 43.560221 2.320123 -7.007007 -13.069419 2.004308 3.069896 0.000000 0.000000 0.000000 10.342074 2.273411 -0.665296 -2.900627 -31.131415 -6.713353 16.772443 7.675750 -0.677211 9.054852 4.516473 -1.096410 0.000000 0.000000 0.000000 8.799319 5.018125 -1.303863 0.162796 0.653170 0.463566 0.000000 0.000000 0.000000 11.805826 6.559382 -1.005118 3.149720 -0.977584 -2.702799 10.384828 -6.906193 -62.477851 4.520287 -49.609040 -3.512596 0.000000 0.000000 0.000000 13.544103 5.800154 -1.862272 2.898382 6.074853 8.608823 9.889246 6.897940 35.360135 8.640497 40.626351 -3.385773 0.000000 0.000000 0.000000 
-2.221294 79.912514 -4.317908 0.000000 0.000000 0.000000 -8.841343 -25.078896 -3.623942 -55.800713 2.989418 16.351785 58.035578 -5.706405 5.192783 4.818814 -9.254082 -1.698436 0.000000 0.000000 0.000000 9.386136 -33.082294 5.310911 -22.987654 -15.124424 -14.852207 45.308398 2.264872 -8.096108 -12.038831 2.640543 1.576083 0.000000 0.000000 0.000000 11.213285 3.288141 -0.732707 -1.111389 -30.154165 -6.259092 17.099621 7.453797 -0.616630 9.175941 4.321978 -1.041420 0.000000 0.000000 0.000000 8.546271 4.886102 -1.178054 0.020640 0.593532 0.499177 0.000000 0.000000 0.000000 11.963989 6.441982 -0.809618 3.163684 -1.090827 -2.283847 10.375258 -6.911237 -62.584224 4.457540 -49.793127 -3.592284 0.000000 0.000000 0.000000 13.726078 5.562185 -1.837485 2.997176 5.228959 8.442717 11.082811 7.471606 33.999152 9.589653 41.897675 -4.575738 0.000000 0.000000 0.000000 
